<?xml version="1.0" encoding="UTF-8"?>
<svg id="Layer_1" xmlns="http://www.w3.org/2000/svg" version="1.1" viewBox="0 0 4736 4736">
  <!-- Generator: Adobe Illustrator 29.6.1, SVG Export Plug-In . SVG Version: 2.1.1 Build 9)  -->
  <defs>
    <style>
      .st0 {
        stroke: #000;
        stroke-miterlimit: 10;
        stroke-width: 2px;
      }
    </style>
  </defs>
  <path class="st0" d="M3137.41,1675.06c-10.73-15.44-195.98-12.14-226.12-11.91-72.46.54-173.64-1.62-241.82,29.85-49.08,22.66-84.28,89.51-150.32,62.28-41.45-57.42-95.56-77.04-85.8-158.4,8.41-70.16,162.95-127.61,223.36-136.64,212.32-31.72,519.44-4.04,724.73,60.76,68.78,21.71,161.08,78.84,185.92,150.08,13.83,39.65,14.79,55.85-11.86,87.95-63.87,76.95-274.43,119.93-374.13,169.87-288.17,144.31-407.01,365.82-595.79,608.21-55.17,70.84-110.73,145.43-148.83,227.17-18.5,39.69-61.89,119.79-19.06,152.48,108.57,82.87,408.73,133.12,545.6,138.4,101.55,3.91,355.33,9.31,437.84-42.49,14.41-9.05,29.6-20.73,34.63-37.91-21.54-37.58-58.4-62.47-93.04-87.02-68.51-48.56-155.09-93.68-231.82-128.18-26.84-12.06-139.32-60.07-161.48-46.59-19.36,11.77-10.35,92.32-11.78,116.19-12.83,213.57-207.28,135.6-289.89,13.56-45.02-66.5-45.48-181.09,21.63-233.82,57.56-45.23,218.26-106.95,290.61-113.39,196.36-17.48,531.43,204.01,644.74,358.23,155.01,210.95-63.54,354.21-250.4,404.12-301.38,80.5-634.92-14-932.04-77.69-126.06-27.02-230.75-12.33-256.29-171.71-22.27-138.98,32.52-274.31,104.24-390.68,73.4-119.08,166.3-249.34,247.96-364.04,120.56-169.34,218.33-305.13,395.6-420.4,43.99-28.6,202.58-110,221.67-146.35,2.1-3.99,2.67-7.5,1.96-11.91Z"/>
  <path class="st0" d="M1273.46,2022.94c27.33,2.01,41.69,5.16,68.84-1.12,124.52-28.79,244.05-96.47,374.33-117.67,232-37.75,447.31,34.02,464.79,296.87,20.37,306.3-188.83,801.01-436.29,987.62-409.06,308.47-678.9-158.58-574.53-538.53,61.37-223.4,306.09-464.55,544.91-479.08,187.46-11.41,199.64,217.77,163.02,351.02-21.19,77.1-40.74,137.38-123.98,164.02-44.35,14.19-105.62-4.72-142.43-31.75-51.36-37.71-42.71-133.83-.81-175.49,23.41-23.28,69.2-22.76,54.14-71.88-54.62-2.77-110.5,29.36-155.66,58.37-97.22,62.46-158.98,180.17-164.5,295.5-5.9,123.23,90.34,339.12,242.89,278.89,157.94-62.36,293.2-347.84,342.34-501.66,38.06-119.11,98.51-295.52-23.75-386.38-129.55-96.27-293.39,4.77-424.45,42.18-96.89,27.65-234.21,50.18-330.99,17.26-37.27-12.68-54.79-33.32-64.03-71.97-20.63-86.29-3.79-209.44,42.94-285.36,88.02-142.99,391.69-360.07,555.07-396.93,111.28-25.11,252.19,46.28,289.28,154.99,7.61,22.31,21.6,69.6,16.89,91.2-14.6,66.91-110.26,90.78-166.28,62.19-46.38-23.67-50.65-70.76-111.55-80.45-124.38-19.79-310.86,140.27-386.25,230.16-28.12,33.53-41.23,66.57-53.95,108.01Z"/>
</svg>